:FULLY-SPECIFIED
:FORCE-ALL-JOINTS-BE-3DOF
:DEGREES
510
root -5.10202 15.0366 -42.5504 366.231 -0.389147 345.624
lfemur -60.1237 39.1076 -14.3854
ltibia 73.0787 0 0
lfoot -19.366 22.3822 0
ltoes 18.3613 0 0
rfemur -14.5171 -15.5789 6.855
rtibia 53.504 0 0
rfoot 9.56043 -20.4783 0
rtoes -1.41523 0 0
lowerback 15.5077 1.29822 -4.48239
upperback -1.3764 1.23165 3.4034
thorax -10.4396 0.965293 5.99076
lowerneck 4.04658 -15.2619 -16.9138
upperneck 4.45159 -22.283 19.8292
head 4.85479 -11.2052 7.39276
lclavicle 2.38542e-15 9.54166e-15 0
lhumerus 19.3441 -73.7217 76.807
lradius 79.779 0 0
lwrist 16.2469 0 0
lhand -3.90798 37.2091 0
lfingers 7.12502 0 0
lthumb 21.8423 65.9964 0
rclavicle 2.38542e-15 9.54166e-15 0
rhumerus 83.3842 34.6424 -11.6979
rradius 110.227 0 0
rwrist -22.2269 0 0
rhand -9.27785 -25.1467 0
rfingers 7.12502 0 0
rthumb 16.679 -54.4502 0
511
root -5.19425 15.0364 -42.6301 366.197 -2.86245 345.908
lfemur -60.1997 39.1906 -14.3214
ltibia 73.0788 0 0
lfoot -18.6949 21.7513 0
ltoes 17.4292 0 0
rfemur -15.1861 -15.7209 6.88642
rtibia 53.0723 0 0
rfoot 9.17492 -19.5871 0
rtoes -1.6534 0 0
lowerback 15.7849 1.38378 -4.65852
upperback -1.35258 1.29196 3.31163
thorax -10.5842 1.00449 5.97737
lowerneck 3.62346 -14.8781 -16.9079
upperneck 4.71013 -21.6766 19.2974
head 4.82227 -10.8852 7.27883
lclavicle 8.74653e-15 -1.90833e-14 0
lhumerus 13.3884 -73.0365 81.5926
lradius 80.6745 0 0
lwrist 14.2513 0 0
lhand -4.58816 37.9524 0
lfingers 7.12502 0 0
lthumb 21.1891 66.8144 0
rclavicle 8.74653e-15 -1.90833e-14 0
rhumerus 83.2448 35.5863 -11.4414
rradius 111.43 0 0
rwrist -21.6508 0 0
rhand -10.2814 -25.7282 0
rfingers 7.12502 0 0
rthumb 15.7126 -55.1103 0
512
root -5.28031 15.026 -42.7058 366.203 -5.37375 346.2
lfemur -59.9353 39.0883 -14.293
ltibia 72.9728 0 0
lfoot -18.0565 21.1512 0
ltoes 16.2759 0 0
rfemur -16.0877 -15.9124 6.92876
rtibia 52.9234 0 0
rfoot 8.72217 -18.5404 0
rtoes -1.94114 0 0
lowerback 16.0591 1.35909 -4.94483
upperback -1.45244 1.19516 3.33732
thorax -10.8503 0.987904 6.20118
lowerneck 3.45964 -14.2981 -17.0473
upperneck 4.87511 -20.8215 18.7612
head 4.69201 -10.4634 7.24165
lclavicle 1.19271e-15 -2.06736e-14 0
lhumerus 6.47275 -71.8747 87.0602
lradius 81.8909 0 0
lwrist 12.4266 0 0
lhand -5.62379 38.138 0
lfingers 7.12502 0 0
lthumb 20.194 67.1083 0
rclavicle 1.19271e-15 -2.06736e-14 0
rhumerus 83.1298 37.0775 -11.213
rradius 113.098 0 0
rwrist -20.8437 0 0
rhand -10.0387 -27.8129 0
rfingers 7.12502 0 0
rthumb 15.9464 -57.1765 0
513
root -5.35517 15.0095 -42.7729 366.165 -8.05792 346.579
lfemur -59.168 38.7914 -14.2106
ltibia 72.6687 0 0
lfoot -17.4575 20.5881 0
ltoes 14.9213 0 0
rfemur -17.2016 -16.1489 6.98107
rtibia 52.9827 0 0
rfoot 8.2089 -17.3538 0
rtoes -2.27017 0 0
lowerback 16.3042 1.33078 -5.25953
upperback -1.52314 1.08434 3.34054
thorax -11.0643 0.964142 6.42056
lowerneck 3.19546 -13.7049 -17.014
upperneck 5.0953 -19.9217 18.0706
head 4.5561 -10.0131 7.12486
lclavicle -9.93923e-15 1.27222e-14 0
lhumerus -0.793856 -70.2547 92.6256
lradius 83.3876 0 0
lwrist 10.7218 0 0
lhand -5.48683 38.0399 0
lfingers 7.12502 0 0
lthumb 20.3256 66.9963 0
rclavicle -9.93923e-15 1.27222e-14 0
rhumerus 82.4248 38.8468 -11.3193
rradius 114.959 0 0
rwrist -19.3385 0 0
rhand -8.61211 -28.6541 0
rfingers 7.12502 0 0
rthumb 17.3198 -57.9023 0
514
root -5.42609 14.9983 -42.8445 366.215 -10.7374 346.962
lfemur -57.9364 38.3148 -14.0783
ltibia 72.1873 0 0
lfoot -16.9044 20.0682 0
ltoes 13.3857 0 0
rfemur -18.5077 -16.4262 7.0424
rtibia 53.1549 0 0
rfoot 7.64183 -16.0429 0
rtoes -2.63225 0 0
lowerback 16.5944 1.19192 -5.7716
upperback -1.74182 0.792378 3.44599
thorax -11.4497 0.884557 6.92437
lowerneck 3.29212 -12.9447 -16.9808
upperneck 5.27516 -18.8312 17.3052
head 4.31436 -9.49026 7.0321
lclavicle -2.16675e-14 5.88403e-14 0
lhumerus -8.85229 -67.8137 98.6827
lradius 85.1264 0 0
lwrist 9.39514 0 0
lhand -6.09735 38.0355 0
lfingers 7.12502 0 0
lthumb 19.7388 67.0533 0
rclavicle -2.16675e-14 5.88403e-14 0
rhumerus 81.3543 41.1645 -11.5679
rradius 117.212 0 0
rwrist -17.3069 0 0
rhand -6.27625 -28.0853 0
rfingers 7.12502 0 0
rthumb 19.5668 -57.1207 0
515
root -5.47907 14.9983 -42.8936 366.113 -13.7357 347.368
lfemur -56.2792 37.6735 -13.9003
ltibia 71.5495 0 0
lfoot -16.4038 19.5976 0
ltoes 11.6892 0 0
rfemur -19.9856 -16.74 7.11181
rtibia 53.4318 0 0
rfoot 7.0277 -14.6232 0
rtoes -3.01911 0 0
lowerback 16.8515 0.99102 -6.35541
upperback -1.94281 0.408355 3.63152
thorax -11.7776 0.771397 7.59144
lowerneck 3.21698 -12.0248 -16.9869
upperneck 5.79366 -17.5198 16.3117
head 4.15619 -8.85127 6.86891
lclavicle -1.33186e-14 -1.43125e-14 0
lhumerus -16.2354 -64.3308 103.805
lradius 87.0741 0 0
lwrist 8.68499 0 0
lhand -5.3116 37.351 0
lfingers 7.12502 0 0
lthumb 20.494 66.2894 0
rclavicle -1.33186e-14 -1.43125e-14 0
rhumerus 79.7606 43.9426 -12.0609
rradius 119.74 0 0
rwrist -15.4647 0 0
rhand -2.70193 -26.5913 0
rfingers 7.12502 0 0
rthumb 23 -55.2391 0
516
root -5.52744 14.9925 -42.9386 365.969 -17.002 347.851
lfemur -54.2351 36.8825 -13.6807
ltibia 70.7762 0 0
lfoot -15.9622 19.1824 0
ltoes 9.85181 0 0
rfemur -21.6152 -17.086 7.18833
rtibia 53.8048 0 0
rfoot 6.37323 -13.1102 0
rtoes -3.42249 0 0
lowerback 17.0552 1.1251 -6.07832
upperback -2.96802 0.566213 3.08526
thorax -13.0954 0.891584 6.79427
lowerneck 7.75129 -10.8352 -17.2266
upperneck 4.76131 -16.4932 16.7762
head 2.98587 -8.56608 7.50285
lclavicle -8.24956e-14 1.59028e-15 0
lhumerus -28.0059 -61.3036 112.243
lradius 89.4163 0 0
lwrist 8.4263 0 0
lhand -6.22786 37.1829 0
lfingers 7.12502 0 0
lthumb 19.6133 66.2135 0
rclavicle -8.24956e-14 1.59028e-15 0
rhumerus 74.1852 48.4157 -15.4341
rradius 122.381 0 0
rwrist -13.0389 0 0
rhand 1.1931 -25.1533 0
rfingers 7.12502 0 0
rthumb 26.7326 -53.2848 0
517
root -5.56438 14.9838 -42.9696 365.739 -20.4158 348.512
lfemur -51.8428 35.9568 -13.4238
ltibia 69.8881 0 0
lfoot -15.5862 18.829 0
ltoes 7.89374 0 0
rfemur -23.3763 -17.4599 7.27103
rtibia 54.2658 0 0
rfoot 5.68513 -11.5195 0
rtoes -3.83412 0 0
lowerback 17.1628 1.81538 -6.3374
upperback -2.07701 1.37001 2.54761
thorax -12.2522 1.19568 6.0889
lowerneck 3.57302 -11.4823 -14.553
upperneck 5.85213 -16.7271 15.556
head 3.70247 -8.44405 6.39662
lclavicle -6.42074e-14 -2.70347e-14 0
lhumerus -30.3802 -60.4891 112.545
lradius 91.636 0 0
lwrist 10.8428 0 0
lhand -5.0416 36.3638 0
lfingers 7.12502 0 0
lthumb 20.7534 65.274 0
rclavicle -6.42074e-14 -2.70347e-14 0
rhumerus 67.402 48.3425 -19.2301
rradius 125.06 0 0
rwrist -11.9675 0 0
rhand 4.87946 -24.3145 0
rfingers 7.12502 0 0
rthumb 30.255 -51.8553 0
